<svg xmlns="http://www.w3.org/2000/svg" viewBox="0 0 240 50" width="240" height="50">
  <defs>
    <linearGradient id="logoGrad" x1="0%" y1="0%" x2="100%" y2="100%">
      <stop offset="0%" style="stop-color:#6366f1;stop-opacity:1" />
      <stop offset="50%" style="stop-color:#8b5cf6;stop-opacity:1" />
      <stop offset="100%" style="stop-color:#a855f7;stop-opacity:1" />
    </linearGradient>
    <linearGradient id="petalLight" x1="30%" y1="0%" x2="70%" y2="100%">
      <stop offset="0%" style="stop-color:#818cf8;stop-opacity:1" />
      <stop offset="100%" style="stop-color:#a78bfa;stop-opacity:1" />
    </linearGradient>
    <linearGradient id="petalDeep" x1="0%" y1="0%" x2="100%" y2="100%">
      <stop offset="0%" style="stop-color:#6366f1;stop-opacity:1" />
      <stop offset="100%" style="stop-color:#7c3aed;stop-opacity:1" />
    </linearGradient>
    <linearGradient id="shieldBase" x1="50%" y1="0%" x2="50%" y2="100%">
      <stop offset="0%" style="stop-color:#7c3aed;stop-opacity:1" />
      <stop offset="100%" style="stop-color:#6366f1;stop-opacity:1" />
    </linearGradient>
  </defs>

  <g transform="translate(3, 1) scale(0.094)">
    <!-- Shield outline glow -->
    <path d="M256 55 C188 55 125 115 125 195 C125 235 145 270 175 295 L256 365 L337 295 C367 270 387 235 387 195 C387 115 324 55 256 55Z" fill="none" stroke="url(#logoGrad)" stroke-width="3" opacity="0.2"/>
    
    <!-- Outer petals - left and right -->
    <path d="M256 80 C195 80 135 135 135 200 C135 232 152 262 178 283 L256 345 L334 283 C360 262 377 232 377 200 C377 135 317 80 256 80Z" fill="url(#petalLight)" opacity="0.3"/>
    
    <!-- Mid outer petals -->
    <path d="M256 65 C185 100 135 160 158 238 C168 268 198 298 256 318 C314 298 344 268 354 238 C377 160 327 100 256 65Z" fill="url(#logoGrad)" opacity="0.5"/>
    
    <!-- Left accent petal -->
    <path d="M200 160 C180 130 195 95 230 90 C250 88 256 110 250 140 C244 170 220 190 200 160Z" fill="url(#petalLight)" opacity="0.45"/>
    
    <!-- Right accent petal -->
    <path d="M312 160 C332 130 317 95 282 90 C262 88 256 110 262 140 C268 170 292 190 312 160Z" fill="url(#petalLight)" opacity="0.45"/>
    
    <!-- Inner main petal -->
    <ellipse cx="256" cy="195" rx="58" ry="78" fill="url(#logoGrad)" opacity="0.85"/>
    
    <!-- Inner detail petals -->
    <ellipse cx="240" cy="185" rx="28" ry="48" fill="url(#petalDeep)" opacity="0.5" transform="rotate(-12, 240, 185)"/>
    <ellipse cx="272" cy="185" rx="28" ry="48" fill="url(#petalDeep)" opacity="0.5" transform="rotate(12, 272, 185)"/>
    
    <!-- Core highlight -->
    <ellipse cx="256" cy="185" rx="24" ry="34" fill="white" opacity="0.25"/>
    <ellipse cx="256" cy="178" rx="14" ry="20" fill="white" opacity="0.35"/>
    <circle cx="252" cy="172" r="7" fill="white" opacity="0.5"/>
    <circle cx="260" cy="176" r="4" fill="white" opacity="0.35"/>
    
    <!-- Shield base -->
    <path d="M195 280 L256 368 L317 280 C294 315 218 315 195 280Z" fill="url(#shieldBase)"/>
    
    <!-- Shield base highlight -->
    <path d="M220 290 L256 345 L292 290 C278 310 234 310 220 290Z" fill="white" opacity="0.15"/>
  </g>

  <!-- Brand text -->
  <text x="52" y="33" font-family="system-ui, -apple-system, 'Segoe UI', sans-serif" font-size="25" font-weight="800" letter-spacing="-0.5" fill="url(#logoGrad)">
    Tortrose
  </text>
</svg>